<svg width="48" height="48" viewBox="0 0 48 48" fill="none" xmlns="http://www.w3.org/2000/svg">
<path d="M25.2965 43.125L42.8626 22.8857C42.9965 22.7304 43.0715 22.5321 43.0715 22.3232L43.0715 17.5821C43.0715 17.1857 42.5787 17.0036 42.3215 17.3036L26.0358 36.0643L26.0358 4.71428C26.0358 4.47856 25.843 4.2857 25.6072 4.2857L22.393 4.2857C22.1572 4.2857 21.9644 4.47856 21.9644 4.71428L21.9644 36.0589L5.67868 17.2982C5.41618 16.9982 4.92868 17.1803 4.92868 17.5768L4.92867 22.4786C4.92867 22.5803 4.96617 22.6821 5.03582 22.7571L22.7037 43.125C22.8649 43.3105 23.0641 43.4591 23.2878 43.561C23.5114 43.6629 23.7543 43.7157 24.0001 43.7157C24.2459 43.7157 24.4888 43.6629 24.7124 43.561C24.9361 43.4591 25.1353 43.3105 25.2965 43.125V43.125Z" fill="white"/>
</svg>
